<svg width="224" height="31" viewBox="0 0 224 31" fill="none" xmlns="http://www.w3.org/2000/svg">
<path d="M16.7685 14.3158C16.5909 13.7406 16.3459 13.2256 16.0334 12.7711C15.728 12.3094 15.3587 11.9153 14.9254 11.5886C14.4993 11.2619 14.0092 11.0168 13.4553 10.8535C12.9013 10.683 12.2976 10.5978 11.6442 10.5978C10.4723 10.5978 9.42827 10.8925 8.51207 11.482C7.59588 12.0715 6.875 12.938 6.34943 14.0815C5.83097 15.2178 5.57173 16.6028 5.57173 18.2363C5.57173 19.884 5.83097 21.2796 6.34943 22.4231C6.8679 23.5665 7.58878 24.4366 8.51207 25.0332C9.43537 25.6227 10.5078 25.9174 11.7294 25.9174C12.8374 25.9174 13.7962 25.7043 14.6058 25.2782C15.4226 24.8521 16.0511 24.2484 16.4915 23.4671C16.9318 22.6788 17.152 21.7555 17.152 20.6972L18.0469 20.8357H12.1236V17.7462H20.9766V20.367C20.9766 22.2349 20.5788 23.8506 19.7834 25.2143C18.9879 26.5779 17.8942 27.629 16.5021 28.3677C15.1101 29.0992 13.5121 29.465 11.7081 29.465C9.69815 29.465 7.93324 29.014 6.41335 28.112C4.90057 27.2029 3.71804 25.9138 2.86577 24.2448C2.0206 22.5687 1.59801 20.58 1.59801 18.2789C1.59801 16.5175 1.84659 14.9444 2.34375 13.5594C2.84801 12.1745 3.55114 10.9991 4.45312 10.0332C5.35511 9.06015 6.41335 8.32152 7.62784 7.81725C8.84233 7.30589 10.1634 7.05021 11.5909 7.05021C12.7983 7.05021 13.924 7.22777 14.968 7.58288C16.0121 7.93089 16.9389 8.42805 17.7486 9.07436C18.5653 9.72066 19.2365 10.4877 19.7621 11.3755C20.2876 12.2633 20.6321 13.2434 20.7955 14.3158H16.7685ZM24.7985 29.1667V7.3485H38.9888V10.6617H28.7509V16.585H38.2537V19.8982H28.7509V25.8535H39.074V29.1667H24.7985ZM43.0211 29.1667V7.3485H51.2029C52.8791 7.3485 54.2853 7.6397 55.4217 8.22208C56.5652 8.80447 57.4281 9.62123 58.0105 10.6724C58.6 11.7164 58.8947 12.9344 58.8947 14.3265C58.8947 15.7256 58.5964 16.9401 57.9998 17.97C57.4103 18.9927 56.5403 19.7846 55.3897 20.3457C54.2392 20.8996 52.8258 21.1766 51.1497 21.1766H45.3223V17.8954H50.617C51.5971 17.8954 52.3997 17.7604 53.0247 17.4906C53.6497 17.2136 54.1113 16.8123 54.4096 16.2867C54.715 15.754 54.8677 15.1006 54.8677 14.3265C54.8677 13.5523 54.715 12.8918 54.4096 12.345C54.1042 11.791 53.639 11.3719 53.014 11.0879C52.389 10.7967 51.5829 10.6511 50.5957 10.6511H46.9735V29.1667H43.0211ZM54.2924 19.2803L59.6937 29.1667H55.2832L49.9778 19.2803H54.2924ZM62.5328 7.3485H67.3695L73.8468 23.1582H74.1025L80.5797 7.3485H85.4164V29.1667H81.6238V14.1773H81.4213L75.3915 29.1028H72.5577L66.5279 14.1454H66.3255V29.1667H62.5328V7.3485ZM92.5222 29.1667H88.3034L95.9846 7.3485H100.864L108.556 29.1667H104.337L98.5094 11.8229H98.339L92.5222 29.1667ZM92.6607 20.612H104.166V23.7867H92.6607V20.612ZM129.359 7.3485V29.1667H125.843L115.563 14.3052H115.382V29.1667H111.429V7.3485H114.966L125.236 22.2207H125.428V7.3485H129.359Z" fill="black"/>
<path d="M155.99 29.1667V7.3485H159.942V16.585H170.052V7.3485H174.015V29.1667H170.052V19.8982H159.942V29.1667H155.99ZM196.99 14.71H193.005C192.892 14.0566 192.682 13.4778 192.377 12.9735C192.071 12.4621 191.691 12.0289 191.237 11.6738C190.782 11.3187 190.264 11.0523 189.681 10.8748C189.106 10.6901 188.485 10.5978 187.817 10.5978C186.631 10.5978 185.58 10.8961 184.664 11.4927C183.747 12.0822 183.03 12.9486 182.512 14.0921C181.993 15.2285 181.734 16.617 181.734 18.2576C181.734 19.9266 181.993 21.3329 182.512 22.4763C183.037 23.6127 183.754 24.4721 184.664 25.0545C185.58 25.6298 186.627 25.9174 187.806 25.9174C188.46 25.9174 189.07 25.8322 189.639 25.6617C190.214 25.4842 190.729 25.2249 191.183 24.884C191.645 24.5431 192.032 24.1241 192.345 23.6269C192.664 23.1298 192.884 22.5616 193.005 21.9224L196.99 21.9437C196.84 22.9806 196.517 23.9536 196.02 24.8627C195.53 25.7718 194.887 26.5744 194.092 27.2704C193.296 27.9593 192.366 28.4991 191.301 28.8897C190.235 29.2732 189.053 29.465 187.753 29.465C185.835 29.465 184.124 29.0211 182.618 28.1333C181.112 27.2455 179.926 25.9636 179.06 24.2874C178.193 22.6113 177.76 20.6013 177.76 18.2576C177.76 15.9067 178.197 13.8968 179.07 12.2278C179.944 10.5516 181.134 9.26967 182.639 8.38188C184.145 7.4941 185.85 7.05021 187.753 7.05021C188.968 7.05021 190.097 7.22066 191.141 7.56157C192.185 7.90248 193.115 8.40319 193.932 9.0637C194.749 9.71711 195.42 10.5197 195.945 11.4714C196.478 12.416 196.826 13.4955 196.99 14.71ZM204.561 7.3485V29.1667H200.609V7.3485H204.561Z" fill="#3E9898"/>
<line x1="143.893" y1="0.166687" x2="143.893" y2="30.1667" stroke="#3E9898" stroke-width="3"/>
</svg>
