<svg width="484" height="172" viewBox="0 0 484 172" fill="none" xmlns="http://www.w3.org/2000/svg">
<path d="M39.0085 32.3381C38.6061 31.0341 38.0507 29.867 37.3423 28.8366C36.6501 27.7902 35.813 26.8968 34.831 26.1562C33.8651 25.4157 32.7543 24.8603 31.4986 24.4901C30.2429 24.1037 28.8745 23.9105 27.3935 23.9105C24.7372 23.9105 22.3707 24.5786 20.294 25.9148C18.2173 27.2509 16.5833 29.215 15.392 31.8068C14.2169 34.3826 13.6293 37.5218 13.6293 41.2244C13.6293 44.9593 14.2169 48.1226 15.392 50.7145C16.5672 53.3063 18.2012 55.2784 20.294 56.6307C22.3868 57.9669 24.8177 58.6349 27.5866 58.6349C30.098 58.6349 32.2713 58.152 34.1065 57.1861C35.9579 56.2202 37.3826 54.8518 38.3807 53.081C39.3788 51.294 39.8778 49.2012 39.8778 46.8026L41.9062 47.1165H28.4801V40.1136H48.5469V46.054C48.5469 50.2879 47.6454 53.9503 45.8423 57.0412C44.0393 60.1321 41.5601 62.5147 38.4048 64.1889C35.2495 65.8471 31.6274 66.6761 27.5384 66.6761C22.9825 66.6761 18.982 65.6539 15.5369 63.6094C12.108 61.5488 9.42756 58.6269 7.49574 54.8438C5.58002 51.0445 4.62216 46.5369 4.62216 41.321C4.62216 37.3286 5.18561 33.7628 6.3125 30.6236C7.45549 27.4844 9.04924 24.8201 11.0938 22.6307C13.1383 20.4252 15.5369 18.7509 18.2898 17.608C21.0426 16.4489 24.0369 15.8693 27.2727 15.8693C30.0095 15.8693 32.5611 16.2718 34.9276 17.0767C37.294 17.8655 39.3949 18.9924 41.2301 20.4574C43.0814 21.9223 44.6027 23.661 45.794 25.6733C46.9853 27.6856 47.7661 29.9072 48.1364 32.3381H39.0085ZM57.2099 66V16.5455H89.3746V24.0554H66.1687V37.4815H87.7085V44.9915H66.1687V58.4901H89.5678V66H57.2099ZM98.5146 66V16.5455H117.06C120.859 16.5455 124.047 17.2055 126.623 18.5256C129.214 19.8456 131.17 21.697 132.49 24.0795C133.827 26.446 134.495 29.2069 134.495 32.3622C134.495 35.5336 133.819 38.2865 132.466 40.6207C131.13 42.9389 129.158 44.7339 126.55 46.0057C123.942 47.2614 120.739 47.8892 116.939 47.8892H103.73V40.4517H115.732C117.953 40.4517 119.773 40.1458 121.189 39.5341C122.606 38.9062 123.652 37.9967 124.328 36.8054C125.021 35.598 125.367 34.1169 125.367 32.3622C125.367 30.6075 125.021 29.1103 124.328 27.8707C123.636 26.6151 122.582 25.6652 121.165 25.0213C119.748 24.3613 117.921 24.0312 115.684 24.0312H107.473V66H98.5146ZM124.063 43.5909L136.306 66H126.309L114.283 43.5909H124.063ZM142.741 16.5455H153.704L168.386 52.3807H168.966L183.647 16.5455H194.61V66H186.014V32.0241H185.555L171.887 65.8551H165.464L151.797 31.9517H151.338V66H142.741V16.5455ZM210.717 66H201.154L218.565 16.5455H229.625L247.059 66H237.497L224.288 26.6875H223.902L210.717 66ZM211.031 46.6094H237.11V53.8054H211.031V46.6094ZM294.214 16.5455V66H286.245L262.942 32.3139H262.532V66H253.573V16.5455H261.59L284.869 50.2557H285.303V16.5455H294.214Z" fill="black"/>
<path d="M354.577 66V16.5455H363.536V37.4815H386.452V16.5455H395.435V66H386.452V44.9915H363.536V66H354.577ZM447.51 33.2315H438.478C438.221 31.7505 437.746 30.4384 437.054 29.2955C436.361 28.1364 435.5 27.1544 434.47 26.3494C433.44 25.5445 432.264 24.9408 430.944 24.5384C429.64 24.1198 428.232 23.9105 426.718 23.9105C424.03 23.9105 421.647 24.5866 419.571 25.9389C417.494 27.2751 415.868 29.2391 414.693 31.831C413.518 34.4067 412.93 37.554 412.93 41.2727C412.93 45.0559 413.518 48.2434 414.693 50.8352C415.884 53.411 417.51 55.3589 419.571 56.679C421.647 57.983 424.022 58.6349 426.694 58.6349C428.175 58.6349 429.56 58.4418 430.848 58.0554C432.152 57.6529 433.319 57.0653 434.349 56.2926C435.395 55.5199 436.273 54.5701 436.981 53.4432C437.706 52.3163 438.205 51.0284 438.478 49.5795L447.51 49.6278C447.172 51.9782 446.439 54.1837 445.312 56.2443C444.201 58.3049 442.744 60.1241 440.941 61.7017C439.138 63.2633 437.029 64.4867 434.615 65.3722C432.2 66.2415 429.52 66.6761 426.574 66.6761C422.227 66.6761 418.347 65.67 414.934 63.6577C411.521 61.6454 408.833 58.7396 406.869 54.9403C404.905 51.1411 403.923 46.5852 403.923 41.2727C403.923 35.9441 404.913 31.3883 406.893 27.6051C408.873 23.8059 411.57 20.9001 414.983 18.8878C418.395 16.8755 422.259 15.8693 426.574 15.8693C429.326 15.8693 431.886 16.2557 434.252 17.0284C436.619 17.8011 438.728 18.9361 440.579 20.4332C442.431 21.9143 443.952 23.7334 445.143 25.8906C446.35 28.0317 447.139 30.4787 447.51 33.2315ZM464.673 16.5455V66H455.714V16.5455H464.673Z" fill="#3E9898"/>
<path d="M2.86932 169V139.909H13.7784C16.0133 139.909 17.8883 140.297 19.4034 141.074C20.928 141.85 22.0786 142.939 22.8551 144.341C23.6411 145.733 24.0341 147.357 24.0341 149.213C24.0341 151.079 23.6364 152.698 22.8409 154.071C22.0549 155.435 20.8949 156.491 19.3608 157.239C17.8267 157.977 15.9422 158.347 13.7074 158.347H5.9375V153.972H12.9972C14.304 153.972 15.3741 153.792 16.2074 153.432C17.0407 153.062 17.6563 152.527 18.054 151.827C18.4612 151.116 18.6648 150.245 18.6648 149.213C18.6648 148.181 18.4612 147.3 18.054 146.571C17.6468 145.832 17.0265 145.274 16.1932 144.895C15.3598 144.507 14.285 144.312 12.9688 144.312H8.1392V169H2.86932ZM17.8977 155.818L25.0994 169H19.2188L12.1449 155.818H17.8977ZM28.8849 169V139.909H47.8054V144.327H34.1548V152.224H46.8253V156.642H34.1548V164.582H47.919V169H28.8849ZM68.9915 147.906C68.8589 146.666 68.3002 145.7 67.3153 145.009C66.34 144.317 65.071 143.972 63.5085 143.972C62.41 143.972 61.4678 144.137 60.6818 144.469C59.8958 144.8 59.2945 145.25 58.8778 145.818C58.4612 146.386 58.2481 147.035 58.2386 147.764C58.2386 148.37 58.3759 148.896 58.6506 149.341C58.9347 149.786 59.3182 150.165 59.8011 150.477C60.2841 150.78 60.8191 151.036 61.4062 151.244C61.9934 151.453 62.5852 151.628 63.1818 151.77L65.9091 152.452C67.0076 152.707 68.0634 153.053 69.0767 153.489C70.0994 153.924 71.0133 154.473 71.8182 155.136C72.6326 155.799 73.2765 156.599 73.75 157.537C74.2235 158.474 74.4602 159.573 74.4602 160.832C74.4602 162.537 74.0246 164.038 73.1534 165.335C72.2822 166.623 71.0227 167.632 69.375 168.361C67.7367 169.08 65.7528 169.44 63.4233 169.44C61.16 169.44 59.1951 169.09 57.5284 168.389C55.8712 167.688 54.5739 166.666 53.6364 165.321C52.7083 163.976 52.2064 162.338 52.1307 160.406H57.3153C57.3911 161.42 57.7036 162.262 58.2528 162.935C58.8021 163.607 59.517 164.109 60.3977 164.44C61.2879 164.772 62.2822 164.938 63.3807 164.938C64.5265 164.938 65.5303 164.767 66.392 164.426C67.2633 164.076 67.9451 163.593 68.4375 162.977C68.9299 162.352 69.1809 161.623 69.1903 160.79C69.1809 160.032 68.9583 159.407 68.5227 158.915C68.0871 158.413 67.4763 157.996 66.6903 157.665C65.9138 157.324 65.0047 157.021 63.9631 156.756L60.6534 155.903C58.2576 155.288 56.3636 154.355 54.9716 153.105C53.589 151.846 52.8977 150.174 52.8977 148.091C52.8977 146.377 53.3617 144.876 54.2898 143.588C55.2273 142.3 56.5009 141.301 58.1108 140.591C59.7206 139.871 61.5436 139.511 63.5795 139.511C65.6439 139.511 67.4527 139.871 69.0057 140.591C70.5682 141.301 71.7945 142.291 72.6847 143.56C73.5748 144.819 74.0341 146.268 74.0625 147.906H68.9915ZM79.1584 169V139.909H98.0788V144.327H84.4283V152.224H97.0987V156.642H84.4283V164.582H98.1925V169H79.1584ZM107.191 169H101.566L111.808 139.909H118.313L128.569 169H122.944L115.174 145.875H114.947L107.191 169ZM107.376 157.594H122.717V161.827H107.376V157.594ZM132.401 169V139.909H143.31C145.545 139.909 147.42 140.297 148.935 141.074C150.459 141.85 151.61 142.939 152.386 144.341C153.172 145.733 153.565 147.357 153.565 149.213C153.565 151.079 153.168 152.698 152.372 154.071C151.586 155.435 150.426 156.491 148.892 157.239C147.358 157.977 145.473 158.347 143.239 158.347H135.469V153.972H142.528C143.835 153.972 144.905 153.792 145.739 153.432C146.572 153.062 147.188 152.527 147.585 151.827C147.992 151.116 148.196 150.245 148.196 149.213C148.196 148.181 147.992 147.3 147.585 146.571C147.178 145.832 146.558 145.274 145.724 144.895C144.891 144.507 143.816 144.312 142.5 144.312H137.67V169H132.401ZM147.429 155.818L154.631 169H148.75L141.676 155.818H147.429ZM183.317 149.724H178.004C177.853 148.853 177.573 148.081 177.166 147.409C176.759 146.727 176.252 146.15 175.646 145.676C175.04 145.203 174.349 144.848 173.572 144.611C172.805 144.365 171.977 144.241 171.087 144.241C169.505 144.241 168.104 144.639 166.882 145.435C165.661 146.221 164.704 147.376 164.013 148.901C163.321 150.416 162.976 152.267 162.976 154.455C162.976 156.68 163.321 158.555 164.013 160.08C164.714 161.595 165.67 162.741 166.882 163.517C168.104 164.284 169.5 164.668 171.072 164.668C171.944 164.668 172.758 164.554 173.516 164.327C174.283 164.09 174.969 163.744 175.575 163.29C176.191 162.835 176.707 162.277 177.124 161.614C177.55 160.951 177.843 160.193 178.004 159.341L183.317 159.369C183.118 160.752 182.687 162.049 182.024 163.261C181.371 164.473 180.514 165.544 179.453 166.472C178.393 167.39 177.152 168.11 175.732 168.631C174.311 169.142 172.734 169.398 171.001 169.398C168.445 169.398 166.162 168.806 164.155 167.622C162.147 166.438 160.566 164.729 159.411 162.494C158.255 160.259 157.678 157.58 157.678 154.455C157.678 151.32 158.26 148.64 159.425 146.415C160.589 144.18 162.176 142.471 164.183 141.287C166.191 140.103 168.464 139.511 171.001 139.511C172.621 139.511 174.126 139.739 175.518 140.193C176.911 140.648 178.151 141.315 179.24 142.196C180.329 143.067 181.224 144.137 181.925 145.406C182.635 146.666 183.099 148.105 183.317 149.724ZM188.143 169V139.909H193.413V152.224H206.893V139.909H212.177V169H206.893V156.642H193.413V169H188.143ZM252.731 149.724H247.418C247.267 148.853 246.987 148.081 246.58 147.409C246.173 146.727 245.666 146.15 245.06 145.676C244.454 145.203 243.763 144.848 242.987 144.611C242.219 144.365 241.391 144.241 240.501 144.241C238.919 144.241 237.518 144.639 236.296 145.435C235.075 146.221 234.118 147.376 233.427 148.901C232.736 150.416 232.39 152.267 232.39 154.455C232.39 156.68 232.736 158.555 233.427 160.08C234.128 161.595 235.084 162.741 236.296 163.517C237.518 164.284 238.915 164.668 240.487 164.668C241.358 164.668 242.172 164.554 242.93 164.327C243.697 164.09 244.383 163.744 244.989 163.29C245.605 162.835 246.121 162.277 246.538 161.614C246.964 160.951 247.257 160.193 247.418 159.341L252.731 159.369C252.532 160.752 252.101 162.049 251.438 163.261C250.785 164.473 249.928 165.544 248.867 166.472C247.807 167.39 246.566 168.11 245.146 168.631C243.725 169.142 242.148 169.398 240.415 169.398C237.859 169.398 235.576 168.806 233.569 167.622C231.561 166.438 229.98 164.729 228.825 162.494C227.669 160.259 227.092 157.58 227.092 154.455C227.092 151.32 227.674 148.64 228.839 146.415C230.004 144.18 231.59 142.471 233.597 141.287C235.605 140.103 237.878 139.511 240.415 139.511C242.035 139.511 243.54 139.739 244.933 140.193C246.325 140.648 247.565 141.315 248.654 142.196C249.743 143.067 250.638 144.137 251.339 145.406C252.049 146.666 252.513 148.105 252.731 149.724ZM283.551 154.455C283.551 157.589 282.964 160.274 281.79 162.509C280.625 164.734 279.034 166.438 277.017 167.622C275.009 168.806 272.732 169.398 270.185 169.398C267.637 169.398 265.355 168.806 263.338 167.622C261.33 166.429 259.74 164.72 258.565 162.494C257.401 160.259 256.818 157.58 256.818 154.455C256.818 151.32 257.401 148.64 258.565 146.415C259.74 144.18 261.33 142.471 263.338 141.287C265.355 140.103 267.637 139.511 270.185 139.511C272.732 139.511 275.009 140.103 277.017 141.287C279.034 142.471 280.625 144.18 281.79 146.415C282.964 148.64 283.551 151.32 283.551 154.455ZM278.253 154.455C278.253 152.248 277.907 150.387 277.216 148.872C276.534 147.348 275.587 146.197 274.375 145.42C273.163 144.634 271.766 144.241 270.185 144.241C268.603 144.241 267.206 144.634 265.994 145.42C264.782 146.197 263.83 147.348 263.139 148.872C262.457 150.387 262.116 152.248 262.116 154.455C262.116 156.661 262.457 158.527 263.139 160.051C263.83 161.566 264.782 162.717 265.994 163.503C267.206 164.279 268.603 164.668 270.185 164.668C271.766 164.668 273.163 164.279 274.375 163.503C275.587 162.717 276.534 161.566 277.216 160.051C277.907 158.527 278.253 156.661 278.253 154.455ZM288.533 139.909H294.982L303.619 160.989H303.96L312.596 139.909H319.045V169H313.988V149.014H313.718L305.678 168.915H301.9L293.86 148.972H293.59V169H288.533V139.909ZM324.783 139.909H331.232L339.869 160.989H340.21L348.846 139.909H355.295V169H350.238V149.014H349.968L341.928 168.915H338.15L330.11 148.972H329.84V169H324.783V139.909ZM379.371 139.909H384.641V158.915C384.641 160.998 384.149 162.83 383.164 164.412C382.189 165.993 380.816 167.229 379.045 168.119C377.274 169 375.205 169.44 372.837 169.44C370.46 169.44 368.387 169 366.616 168.119C364.845 167.229 363.472 165.993 362.496 164.412C361.521 162.83 361.033 160.998 361.033 158.915V139.909H366.303V158.474C366.303 159.687 366.568 160.766 367.099 161.713C367.638 162.66 368.396 163.403 369.371 163.943C370.347 164.473 371.502 164.739 372.837 164.739C374.173 164.739 375.328 164.473 376.303 163.943C377.288 163.403 378.046 162.66 378.576 161.713C379.106 160.766 379.371 159.687 379.371 158.474V139.909ZM414.276 139.909V169H409.588L395.881 149.185H395.639V169H390.369V139.909H395.085L408.778 159.739H409.034V139.909H414.276ZM425.288 139.909V169H420.018V139.909H425.288ZM429.716 144.327V139.909H452.926V144.327H443.935V169H438.707V144.327H429.716ZM455.412 139.909H461.364L468.48 152.778H468.764L475.881 139.909H481.832L471.25 158.148V169H465.994V158.148L455.412 139.909Z" fill="#3E9898"/>
<line x1="326" x2="326" y2="94" stroke="#3E9898" stroke-width="6"/>
</svg>
