<svg width="633" height="889" viewBox="0 0 633 889" fill="none" xmlns="http://www.w3.org/2000/svg">
<path d="M274.258 177.667L269.025 176.289L262.4 170.644L261.387 162.198L255.521 157.886L253.242 148.907L242.144 141.884L229.146 141.662L223.407 136.595L218.554 125.438L223.534 124.727L228.64 126.194L230.032 118.948L227.711 113.614L220.326 115.526L217.668 109.48L219.44 101.035L224.546 99.1235L227.205 94.5452L213.195 96.6788L207.709 98.6346L204.755 91.6115L210.747 89.4334L206.569 86.0552L214.207 83.3882L221.086 83.6549L230.032 78.0987L230.412 73.4759L221.086 60.6742L218.301 53.1622L211.422 47.6059L211.675 44.9389L209.101 38.427L209.987 29.7237L214.334 30.6927L220.073 28.9992L242.397 35.5289L244.423 40.6051L250.921 40.8451L254.129 39.156L257.969 40.1206L265.987 34.0754L266.24 37.947L272.865 39.396L279.617 43.5077L280.799 46.4058L286.538 42.5386L289.956 45.6946L292.657 52.6733L287.171 55.6069H293.543L292.657 69.8754L286.665 75.6539L281.685 76.8541L284.217 79.0321L299.156 75.4317L303.882 79.2988L303.207 86.3219L300.042 89.2112L302.574 92.5894L304.642 85.344L310.381 81.4769H313.546L318.652 85.344L328.485 89.9224L333.971 95.2564H339.33L348.868 88.011L354.227 87.2554L355.113 89.4334L361.232 87.2554L357.814 92.1004L358.953 105.169L357.181 109.747L350.007 114.592L347.475 118.193L340.85 120.148L337.896 125.438L339.457 129.083L345.07 130.55L347.475 134.417M274.258 177.667L276.199 171.488L279.744 175.089L286.243 169.71L290.336 169.043L294.683 165.843L296.582 161.531L302.954 161.265L301.182 165.443L304.895 171.177L303.882 176.422L301.561 177.667L302.321 183.001L310.381 190.69L311.267 193.357M274.258 177.667L279.364 179.4L275.693 180.334M347.475 134.417L356.675 129.349L364.06 128.105L368.659 132.461L368.406 136.106L374.145 134.15L381.91 140.195L383.809 129.572L391.616 121.126L394.148 113.836L398.495 111.925L403.601 112.636L418.244 109.036L421.452 109.48L426.642 101.746L435.926 94.7674L441.834 84.3661L445.632 75.6539L451.118 77.832L468.842 77.6097L471.374 79.2988L468.42 81.2102L457.448 79.7878L453.228 80.9879L447.32 86.7664L442.678 84.8551L440.99 90.1891L437.192 94.0562L437.614 98.6346L440.568 100.546L441.412 96.2343L444.366 91.3892L456.604 84.3661L458.714 81.9658L459.558 85.344L463.356 84.1439L465.466 88.011L468.842 86.7664L470.53 82.8993L474.328 79.5211L478.126 78.8099L478.97 83.6549L482.346 85.5663L481.502 87.7443L484.034 95.7453L495.006 100.324L497.116 104.68L501.336 106.369L506.4 115.081L506.822 111.925L514.84 109.969L521.17 105.88L520.748 108.28L527.5 113.125V111.925L524.124 108.058L527.5 105.613L532.142 113.125L541.004 117.481L553.242 130.283L551.554 133.928L553.242 137.084L543.536 137.528L540.582 140.462L532.986 141.884L531.298 140.684L532.142 142.151L540.16 149.441L547.756 152.241L552.82 152.508L555.352 150.108L557.462 153.486L554.93 155.886L557.884 156.686V161.531L560.416 167.843L561.682 177.667L565.48 184.512L568.012 196.602M347.475 134.417L347.348 137.795L338.529 145.307L338.275 158.286L341.356 159.131L345.07 163.398L349.627 165.132L350.809 178.2H342.749L342.242 184.245L330.511 191.891L328.485 200.203M189.352 51.9621V51.7398L191.251 50.0507L189.352 51.9621ZM189.352 51.9621L192.39 58.0073L190.491 60.1853L186.777 54.6291L189.352 51.9621ZM568.012 196.602L564.214 199.669L559.572 205.448L550.288 204.514V202.381L555.352 198.203L558.306 191.891V186.912L551.554 185.845L549.022 188.246L538.05 187.846L534.252 179.133L529.61 175.489L530.454 181.8L524.124 183.267L518.216 190.69L513.996 192.424L511.464 201.136L505.978 206.381L497.96 205.181L495.006 211.493L489.942 208.826L481.08 219.272L477.282 216.338L472.218 217.805L464.622 216.338L464.2 213.627L457.448 210.826L449.43 208.826L444.366 209.359L438.458 204.248L431.284 201.536L428.752 198.736L420.945 200.336L417.738 206.648L414.573 209.093L405.373 212.427L407.019 215.138L401.027 216.338L398.242 212.693L391.869 214.205L387.649 217.805L389.042 224.384L385.624 227.228L379.252 225.984L378.956 228.695L371.191 227.762M568.012 196.602L569.7 203.314L571.81 205.448L568.012 213.893L568.856 219.005L566.746 228.429L561.26 234.074L554.508 238.919L555.774 248.031L553.664 251.009L559.572 254.343L570.544 262.522L578.14 271.945L581.938 273.145L588.69 279.457L586.58 286.036L588.268 288.48L582.782 296.926L583.204 301.504L587.846 312.795L593.754 315.062L595.02 319.107L593.754 329.552L599.24 334.131L595.442 343.821V350.533L592.91 356.578L589.534 360.756L589.112 365.023L592.488 368.668L593.754 374.447L598.818 378.581L600.928 386.404L598.818 393.783M328.485 200.203L323.885 199.936L314.939 194.291L311.267 193.357M328.485 200.203L333.338 199.669L336.756 202.114L337.136 206.915L349.374 215.938L359.46 225.05L362.92 221.717L366.085 225.317L368.153 223.85L371.191 227.762M197.116 171.488L195.85 165.843L196.23 160.598L201.716 144.818L203.868 142.373L208.848 141.662L212.308 145.529L219.693 148.241L235.518 144.818H245.562L253.369 158.553L258.475 164.598L263.581 174.555L271.599 179.4L275.693 180.334M197.116 171.488L204.248 172.822L205.008 182.734L202.476 185.712L199.691 182.334M197.116 171.488L200.45 179.4L199.691 182.334M275.693 180.334L275.946 184.645L281.432 193.091L289.703 195.358L295.822 191.224L302.321 196.602L311.267 193.357M96.8491 320.84L96.1739 315.462L98.9169 306.749L94.5703 297.059L89.7595 299.06L79.6315 296.126L76.8885 293.459L75.7491 286.169L80.5599 284.302L78.0279 277.59L82.6277 275.59L95.2455 276.523L99.5921 275.59L101.449 259.588L103.517 252.876L110.649 240.519L111.788 233.274L110.649 222.917L112.716 209.893L117.738 201.403L123.731 203.848L120.059 200.336L105.584 199.136L102.588 194.824L102.841 186.646L105.584 178.867L110.86 177.222L107.652 171.621L116.81 163.131L121.663 161.531L131.538 160.598L134.027 162.731L143.438 160.998L162.555 158.82L167.281 160.598L168.42 168.51L175.299 177.933L174.413 180.867L168.294 183.401L170.741 189.446H174.033L177.24 193.891L179.899 194.158L182.979 190.69L184.752 183.001L179.266 181.267L181.038 172.422L186.777 171.621L189.352 175.755L197.116 178.467L199.395 180.6L196.483 183.401L194.838 189.046L195.977 200.203L195.85 187.046L199.691 182.334M96.8491 320.84L103.306 318.44L114.995 317.906L122.549 313.595L129.006 307.55H132.213L134.956 302.971L135.631 296.126L140.231 297.859L141.37 303.105L149.43 309.15L154.537 307.816L158.588 315.062L153.397 326.352L156.309 329.686L160.909 330.53L159.136 335.998L152.342 339.376L153.524 343.287L157.195 345.288L160.909 342.354L171.248 340.843L176.987 335.331L185.005 338.042L192.137 329.686L190.111 327.819V316.928L188.212 309.95L182.22 306.349L180.152 300.304L184.372 301.504L189.605 300.304L193.023 294.526L201.716 292.748L206.316 297.859V305.816L213.954 307.95L222.605 306.083L225.179 300.037L230.665 296.393L233.83 298.526L232.311 301.504L233.451 306.349L229.779 312.795L226.066 313.595L223.787 322.04L229.273 325.152L227.711 329.686L223.787 330.53L224.293 336.575L233.451 336.975L236.658 343.287L237.164 349.333L235.265 352.933L242.903 354.711L240.751 360.178L245.815 362.223L244.929 367.468L253.622 366.49L252.23 377.114L249.276 381.692L247.883 390.671H252.483M96.8491 320.84L91.5741 326.619L87.4385 329.019L83.5561 334.131L79.4205 334.397L72.9639 342.043L79.6315 346.221L81.4883 351.066L76.8885 356.311L69.2925 357.378L56.9279 362.223L52.7923 360.445V364.09L42.6643 359.778L36.4862 355.644L34.1905 356.578L38.094 361.69L33.5027 360.178L22.94 364.757L25.2357 368.268L23.1721 373.113L28.4513 375.647L27.5314 378.847L33.0427 383.426L31.8949 388.804L38.5498 398.628L38.7819 412.185L36.7141 417.83L34.1905 419.697L28.2235 428.854L27.3035 433.521L29.1392 436.632L32.5827 434.499L33.0427 437.832L21.7922 445.833L17.205 450.723L12.8416 448.5L13.9894 457.39H22.4843L22.0243 461.835L26.1557 464.502L24.5478 471.614L21.3364 472.948L19.2686 478.282L21.3364 486.283H25.9278L31.8949 497.395L36.4862 497.84L30.287 505.396L32.5827 511.175L41.7654 512.953L42.2423 518.287L41.0776 525.399L43.1285 530.288M598.818 393.783L591.222 391.916L585.736 392.849L574.764 398.628L570.122 396.45L562.526 397.427L557.04 403.473L555.774 408.807L551.132 416.63L538.05 418.497L521.592 417.297L513.996 411.518L503.446 416.096H499.226V406.14L500.492 404.539L497.538 396.183L490.364 391.249M598.818 393.783L600.506 396.183L612.322 400.895L614.854 402.761L616.964 416.096L620.762 422.142L621.606 426.009L618.23 440.811L617.808 445.389L612.744 461.835L609.368 466.725L607.68 473.837H602.616L596.708 471.17L597.552 464.058H592.066L592.91 456.501L587.424 452.501L581.094 453.39L573.92 451.167L570.966 457.39L575.186 458.279L576.452 461.835L580.672 463.613L578.562 468.503L570.966 468.947L568.434 472.503L558.306 477.837L553.242 478.282L549.022 480.949L548.178 484.949L545.224 487.616L530.032 489.394L524.124 492.061L524.546 495.173L519.904 502.729L515.262 499.618L508.932 506.285L505.556 504.952L500.914 514.731L490.786 515.62L489.942 521.843L484.878 525.399L478.548 521.398L473.906 522.287L468.842 527.177L457.448 528.066L454.916 532.955L450.274 536.511L446.054 542.734L442.678 553.847L439.302 543.179L435.504 542.29L434.66 538.289L430.018 537.4M371.191 227.762L374.905 232.874L380.391 231.762L390.983 235.674M390.983 235.674L397.355 239.052L398.242 241.986L402.588 240.786L407.019 248.031L415.712 252.609L423.688 251.943L424.954 254.61H430.862L432.972 259.855L430.44 263.766V268.567L432.972 273.945L431.706 279.457L428.752 279.991L426.642 288.881L428.33 292.748L432.128 290.347L437.192 296.659L434.66 301.238L434.238 311.861L432.55 319.373L435.082 322.307L432.128 328.752L436.348 335.998L447.32 348.666L450.274 347.421L456.182 352.666L459.136 353.466L463.356 350.133L476.86 358.578L481.924 358.978L489.52 364.757L500.914 364.09L496.272 371.602L497.96 380.359L495.85 384.359L490.364 391.249M390.983 235.674L389.802 239.319L386.383 240.519L386.13 246.831L380.391 251.142L369.799 254.343L367.478 252.209L354.86 251.009L351.442 255.943L346.589 257.988L338.824 259.188L338.529 264.966L341.356 271.945L343.635 273.145L349.121 283.369L352.834 283.769L351.189 291.548L354.354 296.659L350.935 297.326L350.302 300.704L355.113 307.016L358.953 310.617L354.354 313.861L355.366 320.04L359.966 326.885L355.493 331.197L358.067 333.197L356.928 337.242L351.189 341.109L352.581 344.754L344.816 346.488L331.903 347.421L329.878 350.799L326.67 351.333L331.397 356.578L329.371 360.445L331.017 364.757L327.346 369.202L327.599 376.714L332.789 384.359L334.857 392.182M490.364 391.249L484.878 390.004L476.86 385.604L471.796 390.404L467.154 389.471L464.2 393.649L449.43 394.049L449.008 397.294L440.568 399.694L435.926 398.894L433.394 402.495V409.073L431.284 411.518L432.972 425.075L430.018 428.854L432.55 439.299L431.706 442.411L436.348 451.167L439.302 451.612M334.857 392.182L341.989 392.582L351.189 396.716L349.121 399.428L353.088 410.585L352.581 415.119L354.86 417.297L368.026 418.497L375.791 419.964L379.252 422.675L384.949 432.054L383.05 435.165L377.184 438.366L383.05 444.5L383.556 451.612H401.027L403.981 460.057L412.505 459.168L417.358 461.835L422 467.169L432.55 466.28L435.082 468.947L440.146 460.057L438.036 457.39L439.302 451.612M334.857 392.182L329.118 399.428L322.999 401.295L316.753 397.294L313.799 397.961L313.04 402.761L304.895 410.585L301.815 409.785L298.903 414.852H291.982L285.483 420.364M252.483 390.671L255.901 392.582L264.468 392.849L268.266 399.428H265.607L262.4 405.873L265.101 410.718L264.721 418.23L261.26 418.497L260.248 424.809L267.886 427.92L269.7 430.32L273.119 428.454L269.954 422.408L282.571 416.63L285.483 420.364M252.483 390.671L245.309 395.249L246.744 396.716L242.65 405.206L237.797 408.273L237.164 411.518L230.286 413.118L228.64 408.54L224.293 405.74L216.908 408.807L218.554 418.763L201.969 421.43L194.711 430.854L196.23 434.765L203.868 431.521L205.936 442.678L199.395 451.612L190.744 451.167L191.884 459.168L184.752 470.281L179.266 476.504L174.919 474.281L164.074 484.505L166.142 489.394L163.441 495.617M43.1285 530.288L46.7999 529.844L45.1963 524.065L48.8677 528.955L57.8141 524.954L59.8819 528.066L63.1313 527.177L66.5495 529.844L71.8245 528.066L70.0099 515.62L74.1455 513.842L78.7031 515.175V510.286L82.6277 506.73L90.1815 503.174L97.3133 502.285L100.309 498.729L106.049 500.507L111.999 498.729L113.392 491.617L127.613 488.95L134.492 483.616L133.141 480.504L139.345 477.837L138.88 469.836L142.045 467.169L145.717 468.503L144.577 472.948L151.076 478.726L152.849 478.282L153.397 485.394L158.081 494.728L163.441 495.617M43.1285 530.288L38.094 532.066L34.6505 537.4L27.3035 541.845L28.2235 544.957L25.2357 547.179L22.7121 559.625L26.6156 571.627L27.3035 570.293L30.287 578.294L42.9175 588.073L48.6567 589.407L47.5173 599.63L42.4533 602.742L42.2423 606.298L37.1741 614.299L36.7141 618.744M439.302 451.612L443.522 451.167L453.65 454.279L458.292 463.613L462.09 465.836L465.044 471.17L462.934 474.726L457.448 474.281L450.696 480.06H447.32L439.724 484.06L441.412 486.283L438.458 491.617L441.412 496.506L443.944 496.951L439.724 502.285H435.082L432.55 509.841H427.908L426.22 513.397L422 512.064L417.738 518.287L419.384 520.954L416.599 526.288M285.483 420.364L283.964 422.808L285.357 429.12L292.277 432.321L294.303 438.099L303.882 442.411L301.561 449.834L300.295 446.722L296.962 447.611L300.042 449.834L298.143 456.501L301.435 457.835L301.182 463.169L291.982 461.835L290.083 464.502L291.222 469.392H285.483L286.665 472.948L288.944 471.614L292.277 476.059L289.703 481.393L285.103 483.171L282.571 496.951L279.997 502.285L284.344 504.063L285.103 500.062L291.729 499.618L293.417 504.507L291.222 506.285L291.982 516.509M163.441 495.617L162.301 499.618L165.002 506.285L160.909 512.953L156.562 510.73L154.03 513.397L154.663 520.509L151.962 527.177L156.562 529.844L161.162 540.512L155.803 542.29L154.03 547.179L152.216 545.846L147.405 548.957L145.337 553.847L146.856 559.181L142.299 557.847L141.37 560.959L136.348 564.515L141.666 569.404L143.438 573.849H146.223L155.17 568.96L163.821 566.293L167.281 567.182L174.413 576.516V584.073L179.899 597.852L183.359 598.741L176.734 604.075L175.299 608.965L178.759 618.299M430.018 537.4L422 533.4L421.958 529.399L416.599 526.288M430.018 537.4L430.44 542.734L428.752 544.957L435.926 552.958V558.736L440.568 566.737L455.76 574.294V578.739L459.98 581.85L455.338 595.63L450.696 599.63L453.228 604.52L458.714 607.631L459.136 613.41L462.934 616.966L465.888 624.522L467.998 625.411L469.264 634.301L475.594 637.857L480.236 644.969L489.098 644.08L494.584 648.081L507.244 667.194L515.684 669.417L521.17 675.195L522.014 680.085L529.188 685.863L530.454 683.196L538.05 684.53L541.426 691.642L546.49 692.975L553.242 704.088L551.132 708.533L553.242 711.644L552.82 720.979L547.334 731.202L540.582 727.202L533.408 724.979L527.5 728.091L529.188 733.869L526.234 748.538L517.372 756.539L507.666 758.761L500.07 762.317L493.318 768.096L489.52 769.429L480.658 778.764L481.502 784.987L486.988 789.876L488.676 795.21L494.162 800.1L498.804 808.545L492.052 822.325L497.538 824.103L501.336 823.214L504.712 827.214L505.556 832.993L503.024 837.438L503.446 847.217L501.336 849.884L496.694 850.328L484.456 841.438L486.988 834.771L483.19 828.992L475.594 828.548L468.42 832.993L464.2 833.882L458.714 827.214L445.632 828.548V822.769L441.412 825.881L443.1 834.326L440.568 836.993H424.11L418.244 838.327L416.219 840.994L401.66 839.66L396.849 848.106L387.016 849.439L383.556 853.44L384.949 856.107L379.505 857.44L376.044 860.996L369.546 858.774L363.553 862.33L356.042 862.774L354.607 857.885L346.842 851.217L347.348 847.217L342.495 848.55L329.371 843.661L323.379 847.217L315.614 842.772L315.867 851.217L318.146 857.44L315.319 863.663L311.9 865.886L307.554 872.553L302.701 875.22L296.962 875.665L300.675 866.775L299.536 864.108L291.096 865.441L290.843 857.44L287.424 852.106L285.357 852.995L282.065 848.106L272.486 845.883L272.232 841.883L268.139 841.438L265.86 845.439L257.969 840.994M291.982 516.509L296.835 511.175L300.928 512.953L304.389 516.953L309.579 519.176L321.86 534.289L325.531 533.844L327.979 537.4L329.878 548.513L337.136 550.291L337.389 546.735H345.07L344.816 543.179L336.25 537.845L337.136 533.4L341.356 530.733L351.948 530.288L354.86 534.733L363.173 532.955L364.693 538.734L368.659 543.179L372.964 542.734L374.652 533.4L372.331 520.509L378.956 515.62L384.189 516.064L384.062 524.065L387.649 525.399L391.616 530.733L409.34 526.732L411.619 528.955L416.599 526.288M291.982 516.509L288.311 524.065L278.605 529.399L272.486 528.955L271.093 539.623L266.493 542.29L265.101 547.179L261.64 548.513L255.015 547.179L254.129 553.847L255.901 554.736L254.382 561.403L247.63 563.181L242.397 557.847L235.518 556.958L230.412 560.514L227.458 559.181L220.58 562.292L218.301 566.737L221.719 568.071L221.466 583.184L224.293 591.629L229.146 596.519L228.091 606.742L225.812 607.631L226.572 612.965L223.787 616.077L226.572 619.633M178.759 618.299L184.499 619.633L188.972 624.522L192.517 622.3L191.63 615.188L196.483 614.299L199.395 623.189L211.169 627.189L208.215 629.856L205.683 638.746L207.709 639.635L214.84 632.968L215.727 627.634L227.205 626.745L224.293 620.077L226.572 619.633M178.759 618.299L178.126 620.966L181.798 631.19L183.866 633.857V641.413L181.038 648.081L182.473 649.859L175.805 656.971L173.273 670.306L167.787 681.418L161.795 686.752M226.572 619.633H236.151L238.43 614.299L244.929 612.076L246.744 612.965L248.389 605.409L240.625 602.742L243.283 596.963L252.989 596.074L260.501 598.741L263.581 597.408L262.4 606.742L265.607 607.631L267.886 604.52L268.772 608.076L273.372 604.075L276.199 612.076L279.364 616.966L276.326 623.189L281.685 620.077L283.078 631.19H288.817L293.417 624.078L296.329 627.634L295.189 635.635L299.156 641.413L295.696 643.191L298.143 653.859L296.329 654.304L297.215 661.86L305.528 670.306L306.161 678.751L311.774 680.529L318.779 690.753V702.754L317.007 710.311L321.353 717.423L317.007 720.534L316.5 717.423L312.913 721.423L307.554 717.423L305.781 719.645L308.693 727.646V736.092L297.215 743.648L296.075 741.426L291.222 742.759L285.103 752.983L290.336 761.428L294.05 778.764L295.822 783.209L295.442 791.21L292.404 799.655L294.05 802.322L293.164 808.545L295.442 815.213L291.729 818.769L294.303 820.991L295.442 829.881L291.222 833.882L290.083 830.77L282.571 832.993L276.326 831.215L265.607 838.771L257.969 840.994M36.7141 618.744L46.3357 618.299L54.3959 618.744L61.7387 616.966L72.0777 612.521L77.5637 609.409H81.9525L86.7633 612.521L90.8989 612.965L96.6381 617.41L100.056 615.632L102.377 626.3L97.9885 630.301L101.449 637.413L107.188 639.191V642.747L101.913 652.081L100.056 657.415L105.331 661.86M36.7141 618.744L36.0262 626.3L40.1576 625.411L46.1247 628.967L51.1887 637.413L49.3319 640.08L55.3243 647.636L58.9957 658.749L66.3385 662.305L68.4063 660.527V655.193L74.6097 656.082L80.3489 659.193L80.7709 665.861L85.3707 663.638L89.9705 666.75L97.7775 668.083L105.331 661.86M257.969 840.994L253.875 840.105L250.921 834.771L243.283 830.77L237.544 829.881L230.919 824.992L227.205 820.547L220.073 814.768V817.88L226.319 822.769L229.273 831.215L215.727 829.881L207.962 832.993L203.109 829.437L200.45 824.992L194.458 827.659L194.838 821.88L190.491 817.435L186.777 820.102L186.651 816.546L176.734 819.658L171.881 825.881L171.248 830.326L175.805 833.437L183.866 831.215L182.979 839.216L180.405 835.66L175.172 839.66H168.294L163.694 835.66H155.803L149.177 840.549L136.559 840.994L135.631 837.882L130.145 836.993L126.22 840.994L120.059 842.327L116.81 840.105L118.667 836.549L113.392 837.438L113.856 834.771L109.256 827.659L110.649 820.991L109.931 815.213L112.716 809.434V804.989L117.527 791.21L114.531 785.431V780.986L117.738 771.652L122.549 765.429L124.617 757.428L128.288 752.538L127.613 746.76L130.609 736.981L133.352 734.314V724.09L136.559 719.201L143.438 713.422L145.084 708.533L154.663 701.865L158.081 692.531L161.795 686.752M105.331 661.86L112.463 663.638L111.999 666.305L115.206 671.639L121.199 673.862L123.942 676.973L132.677 676.084L138.416 677.862L143.691 677.418L154.283 684.085L161.795 686.752M193.529 29.7237L196.23 30.4483L209.608 30.2082L208.215 31.4173L200.45 30.6927L196.99 32.8663L190.238 31.4173L187.959 32.8663L186.777 45.9169L186.398 41.8141L187.284 29.7237L193.023 14.0062L196.23 14.4907L191.377 21.5049V27.5501L193.529 29.7237ZM203.995 51.9621H196.737L193.276 49.5618L197.623 45.2056L203.109 45.4279L205.43 48.3616L203.995 51.9621ZM499.648 53.9179L500.07 58.9851L504.712 61.8744L512.308 59.963L514.84 60.452L517.794 65.2526L511.464 73.2536L513.996 79.5211L519.482 81.6991L523.702 86.7664L520.748 91.3892L516.95 91.6115L520.748 88.5L516.528 86.3219L507.666 87.5221L499.226 96.9455L502.602 96.4565L503.024 100.324L496.272 98.4123L497.538 94.7674L493.318 97.9234L483.612 89.2112L485.722 84.8551L492.052 83.6549L491.208 80.01L486.144 79.2988L487.41 76.4096L492.052 74.4538L490.364 69.3865L487.41 70.3644L486.144 65.7415L490.786 64.7636L493.318 66.4972L498.804 61.3855L497.538 68.1863L500.07 66.0082L502.602 71.2978L507.244 71.5645L506.822 64.0525H503.024L498.382 58.274L492.474 64.0525L491.208 62.5856L493.318 54.6291L489.52 56.0959L490.786 52.6733L499.226 49.784L502.602 51.2509L499.648 53.9179ZM485.3 60.1853L483.19 61.8744L482.346 68.1863L479.814 71.0756L482.346 59.963L485.3 60.1853ZM209.608 73.4759L206.316 74.4538L205.43 70.3644L211.422 67.2084L209.608 73.4759ZM368.659 76.8541L372.331 84.1439L364.566 82.677L359.966 83.8772L358.953 80.01L355.113 80.499L353.214 78.3209L355.113 73.7426L360.346 70.5866L365.705 72.9869L368.659 76.8541ZM222.901 77.6097L220.073 77.832L218.301 73.7426L220.326 71.7868L227.711 71.5645L222.901 77.6097ZM527.5 113.392L524.124 120.86L530.032 126.194L530.876 129.572L534.252 130.772L533.83 134.15L529.188 138.284L530.032 139.484L536.362 135.617L536.784 132.461L534.252 124.993L538.472 125.438L539.316 128.594L543.536 130.55L542.27 121.571L541.004 122.326L536.362 116.992L533.408 123.038L531.298 124.504L531.72 119.17L525.812 122.326L527.5 116.503V113.392ZM384.189 127.171L382.417 132.95L376.677 131.75L377.564 129.349L382.417 126.416L384.189 127.171ZM153.102 152.508L149.937 154.019L146.476 153.086L148.797 151.041L153.102 152.508ZM142.045 154.953L134.956 155.219L133.605 153.486H140.864L142.045 154.953ZM124.617 157.086L113.603 159.398L111.071 158.286L117.527 156.42L124.617 157.086ZM85.8349 171.621L82.8387 172.422L80.7709 169.043L88.8311 167.043L85.8349 171.621ZM199.015 216.338L195.091 214.871L195.977 217.805L202.223 219.939L203.868 225.584L207.709 231.362V234.474L218.048 235.274L221.086 237.674L224.926 234.74L225.179 225.584L222.605 222.383L221.213 225.05L210.747 219.005L207.329 219.272L199.015 216.338ZM514.84 276.123V279.724L519.482 284.836L524.546 286.969L523.28 293.014L525.812 292.481L531.72 296.659L529.188 305.105L525.39 309.016L524.546 305.105L513.152 301.238L511.042 305.371L502.602 301.904H497.116L493.318 304.305L489.52 301.904L492.052 290.081L492.896 281.902L495.85 283.102L496.694 278.79L502.18 275.19L503.446 278.524L506.822 278.257L512.73 273.945L514.84 276.123Z" stroke="#40A3A0" stroke-width="3" stroke-linecap="round" stroke-linejoin="round"/>
</svg>
