<svg width="45" height="45" viewBox="0 0 45 45" fill="none" xmlns="http://www.w3.org/2000/svg">
<g clip-path="url(#clip0_97_2)">
<g clip-path="url(#clip1_97_2)">
<path d="M27.4745 44.7023C27.1989 44.7023 26.9751 44.4791 26.9751 44.203V20.5296C26.9751 20.254 27.1989 20.0303 27.4745 20.0303C27.7501 20.0303 27.9739 20.254 27.9739 20.5296V44.203C27.9739 44.4791 27.7501 44.7023 27.4745 44.7023Z" fill="#66676B"/>
<path d="M27.4752 20.5296C33.076 20.5296 37.6164 15.9893 37.6164 10.3884C37.6164 4.78762 33.076 0.247253 27.4752 0.247253C21.8744 0.247253 17.334 4.78762 17.334 10.3884C17.334 15.9893 21.8744 20.5296 27.4752 20.5296Z" fill="#FFCC00"/>
<path d="M30.9696 9.39117C32.3488 9.39117 33.4669 8.27305 33.4669 6.89378C33.4669 5.51451 32.3488 4.39639 30.9696 4.39639C29.5903 4.39639 28.4722 5.51451 28.4722 6.89378C28.4722 8.27305 29.5903 9.39117 30.9696 9.39117Z" fill="white"/>
</g>
</g>
<defs>
<clipPath id="clip0_97_2">
<rect width="45" height="45" fill="white"/>
</clipPath>
<clipPath id="clip1_97_2">
<rect width="45" height="45" fill="white" transform="translate(5)"/>
</clipPath>
</defs>
</svg>
